:FULLY-SPECIFIED
:DEGREES
1247
root 6.95903 16.6702 -3.20652 4163.89 -93.4069 -4150.76
lowerback 1.3399 0.4593 1.60962
upperback 2.59368 0.566585 0.874554
thorax 1.91445 0.289879 -0.00374359
lowerneck -17.203 0.88809 -3.48735
upperneck 32.8236 0.82736 2.30515
head 14.0392 -0.0330711 1.60938
rclavicle -4.77083e-015 -3.16068e-014
rhumerus -27.9525 -14.9879 -78.0433
rradius 20.0175
rwrist 32.9632
rhand -19.6347 -12.7012
rfingers 7.12502
rthumb 6.69248 -42.5755
lclavicle -4.77083e-015 -3.16068e-014
lhumerus -26.7694 -4.26738 84.6476
lradius 46.6771
lwrist 9.71898
lhand -28.1269 3.69358
lfingers 7.12502
lthumb -1.50849 33.668
rfemur -33.8236 2.5529 24.0596
rtibia 35.9098
rfoot -9.05993 -2.54965
rtoes -4.1973
lfemur -28.7461 7.64631 -16.4106
ltibia 68.4812
lfoot 2.9071 -3.93124
ltoes -19.4251
1248
root 6.98064 16.6964 -3.21846 4165.69 -93.0293 -4152.58
lowerback 1.333 0.603551 1.49761
upperback 2.57066 0.76263 0.729673
thorax 1.8973 0.387702 -0.0888092
lowerneck -17.1596 0.862522 -3.4111
upperneck 32.6852 0.771308 2.30927
head 13.9709 -0.0426497 1.58621
rclavicle 1.11319e-014 6.11263e-015
rhumerus -27.305 -13.7551 -78.9135
rradius 20.9488
rwrist 31.6615
rhand -20.3911 -12.8376
rfingers 7.12502
rthumb 5.96223 -42.7337
lclavicle 1.11319e-014 6.11263e-015
lhumerus -27.5314 -4.31833 84.626
lradius 45.7248
lwrist 9.25913
lhand -27.2747 3.52254
lfingers 7.12502
lthumb -0.685421 33.5012
rfemur -32.749 3.18167 24.074
rtibia 35.5486
rfoot -9.6117 -2.78541
rtoes -4.32107
lfemur -30.2962 8.05658 -16.6224
ltibia 68.7919
lfoot 2.53773 -4.27837
ltoes -19.4056
1249
root 7.01115 16.713 -3.22374 4172.33 -92.6365 -4159.06
lowerback 1.20664 0.766315 1.6415
upperback 2.51651 0.981115 0.613847
thorax 1.92005 0.501409 -0.285719
lowerneck -17.1454 0.849594 -3.35402
upperneck 32.5137 0.754868 2.28596
head 13.8935 -0.0399351 1.56194
rclavicle 7.95139e-016 1.6201e-014
rhumerus -26.6372 -12.4729 -79.7687
rradius 22.0122
rwrist 30.0765
rhand -21.1978 -12.996
rfingers 7.12502
rthumb 5.18336 -42.9126
lclavicle 7.95139e-016 1.6201e-014
lhumerus -28.2014 -4.33239 84.6058
lradius 44.6395
lwrist 8.71364
lhand -26.5052 3.05593
lfingers 7.12502
lthumb 0.0578179 33.0357
rfemur -31.9015 3.64707 24.299
rtibia 35.1494
rfoot -10.1481 -2.73539
rtoes -4.45519
lfemur -32.0687 8.5365 -16.7475
ltibia 68.9402
lfoot 2.13964 -4.62278
ltoes -19.4775
1250
root 7.03323 16.7326 -3.23229 4175.28 -92.5363 -4162.1
lowerback 1.25411 0.816711 1.66595
upperback 2.52814 1.05062 0.519143
thorax 1.90884 0.537601 -0.396636
lowerneck -17.0846 0.835154 -3.21738
upperneck 32.3342 0.745095 2.15224
head 13.8038 -0.040274 1.48017
rclavicle -3.97569e-015 1.95182e-014
rhumerus -26.0244 -11.2655 -80.533
rradius 23.0899
rwrist 28.6873
rhand -22.0346 -13.1194
rfingers 7.12502
rthumb 4.37536 -43.0542
lclavicle -3.97569e-015 1.95182e-014
lhumerus -28.8448 -4.40727 84.6026
lradius 43.4948
lwrist 8.24204
lhand -25.6795 2.99433
lfingers 7.12502
lthumb 0.855251 32.9724
rfemur -30.685 3.95652 24.4777
rtibia 34.7352
rfoot -10.7041 -2.87289
rtoes -4.1755
lfemur -33.477 8.68075 -16.8707
ltibia 68.8046
lfoot 1.74247 -5.07116
ltoes -18.7671
1251
root 7.05397 16.747 -3.23521 4183.11 -92.4706 -4169.95
lowerback 1.23954 0.893715 1.94669
upperback 2.53242 1.15382 0.442146
thorax 1.93119 0.595355 -0.631698
lowerneck -17.1294 0.832887 -3.19984
upperneck 32.1724 0.75003 2.16101
head 13.7429 -0.0285601 1.4802
rclavicle 1.59028e-015 -8.29926e-015
rhumerus -25.4771 -9.87308 -81.3101
rradius 24.3116
rwrist 27.3513
rhand -22.7676 -13.3437
rfingers 7.12502
rthumb 3.66749 -43.2919
lclavicle 1.59028e-015 -8.29926e-015
lhumerus -29.4952 -4.55774 84.5715
lradius 42.3389
lwrist 8.0614
lhand -25.0099 2.73973
lfingers 7.12502
lthumb 1.50204 32.7142
rfemur -29.5395 4.24269 24.8481
rtibia 34.3176
rfoot -11.2886 -2.96907
rtoes -4.21937
lfemur -34.9108 8.92054 -16.879
ltibia 68.4863
lfoot 1.28537 -5.5223
ltoes -18.2382
1252
root 7.0795 16.7522 -3.24049 4188.55 -92.3782 -4175.31
lowerback 1.18452 0.983581 2.05869
upperback 2.46118 1.27668 0.33538
thorax 1.89713 0.659977 -0.80278
lowerneck -17.0483 0.811464 -3.14599
upperneck 31.9863 0.726926 2.1133
head 13.6459 -0.0331393 1.44517
rclavicle 3.65764e-014 1.53064e-014
rhumerus -24.9912 -8.66349 -81.9535
rradius 25.6416
rwrist 25.6948
rhand -23.1142 -13.6541
rfingers 7.12502
rthumb 3.33282 -43.6078
lclavicle 3.65764e-014 1.53064e-014
lhumerus -30.1644 -4.75486 84.5919
lradius 41.219
lwrist 7.95977
lhand -24.4288 2.61104
lfingers 7.12502
lthumb 2.06323 32.5808
rfemur -28.5725 4.51075 25.0721
rtibia 33.9223
rfoot -11.7739 -3.05239
rtoes -4.44495
lfemur -36.4549 9.08945 -17.0813
ltibia 67.9396
lfoot 0.765987 -5.84018
ltoes -17.8341
1253
root 7.10436 16.7556 -3.24328 4193.48 -92.5065 -4180.17
lowerback 1.16976 1.00299 2.27109
upperback 2.39242 1.30432 0.323799
thorax 1.84103 0.677172 -0.933797
lowerneck -17.019 0.817932 -3.13414
upperneck 31.8192 0.764513 2.05399
head 13.5667 -0.0182198 1.42365
rclavicle -4.13472e-014 -1.77912e-014
rhumerus -24.5047 -7.34356 -82.4925
rradius 26.9551
rwrist 24.262
rhand -23.6138 -13.7421
rfingers 7.12502
rthumb 2.85032 -43.7028
lclavicle -4.13472e-014 -1.77912e-014
lhumerus -30.7831 -4.78747 84.6431
lradius 40.0183
lwrist 7.66634
lhand -23.7147 2.50023
lfingers 7.12502
lthumb 2.75293 32.4622
rfemur -27.5867 4.64688 25.4288
rtibia 33.552
rfoot -12.3875 -3.05289
rtoes -4.02062
lfemur -37.9691 9.08601 -17.1384
ltibia 67.1913
lfoot 0.267341 -6.1142
ltoes -17.3257
1254
root 7.12911 16.7509 -3.24353 4200.1 -92.5618 -4186.63
lowerback 1.08878 1.078 2.48519
upperback 2.28198 1.40624 0.284558
thorax 1.783 0.731585 -1.09281
lowerneck -16.9949 0.825216 -3.06894
upperneck 31.7011 0.79979 1.94392
head 13.5109 -0.00635606 1.37303
rclavicle -1.27222e-014 -3.8763e-015
rhumerus -24.1097 -6.01191 -82.9685
rradius 28.3483
rwrist 22.5522
rhand -23.959 -13.8286
rfingers 7.12502
rthumb 2.51699 -43.7935
lclavicle -1.27222e-014 -3.8763e-015
lhumerus -31.402 -4.72105 84.6567
lradius 38.8351
lwrist 7.24297
lhand -23.1097 2.4486
lfingers 7.12502
lthumb 3.33716 32.4022
rfemur -26.756 4.86487 25.7625
rtibia 33.2683
rfoot -12.8928 -3.10744
rtoes -4.99507
lfemur -39.4931 9.15305 -17.2756
ltibia 66.2156
lfoot -0.1882 -6.3229
ltoes -16.8603
1255
root 7.15179 16.745 -3.24575 4203.11 -92.5729 -4189.5
lowerback 0.975586 1.16247 2.55067
upperback 2.22021 1.51916 0.206129
thorax 1.79132 0.79015 -1.20731
lowerneck -17.0247 0.780604 -3.00748
upperneck 31.5954 0.756674 1.85483
head 13.4748 -0.0254427 1.31961
rclavicle 1.11319e-014 2.5842e-015
rhumerus -23.6424 -4.99261 -83.3237
rradius 29.6831
rwrist 21.3105
rhand -24.1993 -13.8067
rfingers 7.12502
rthumb 2.28491 -43.7742
lclavicle 1.11319e-014 2.5842e-015
lhumerus -31.9245 -4.7821 84.6974
lradius 37.693
lwrist 6.91408
lhand -22.3766 2.71603
lfingers 7.12502
lthumb 4.0451 32.6574
rfemur -25.8704 5.08407 25.9428
rtibia 32.9798
rfoot -13.6082 -3.40864
rtoes -5.4829
lfemur -40.868 9.11525 -17.5501
ltibia 64.9679
lfoot -0.754011 -6.46954
ltoes -17.4677
1256
root 7.17596 16.7358 -3.24669 4205.55 -92.4567 -4191.73
lowerback 0.853475 1.24511 2.43766
upperback 2.09457 1.63196 0.123517
thorax 1.73422 0.844902 -1.22672
lowerneck -16.9696 0.769417 -2.93428
upperneck 31.4572 0.767373 1.72762
head 13.405 -0.0251508 1.25679
rclavicle 2.14687e-014 -2.18663e-015
rhumerus -23.2474 -3.84133 -83.5926
rradius 31.0326
rwrist 19.8952
rhand -24.3873 -13.7411
rfingers 7.12502
rthumb 2.10327 -43.7105
lclavicle 2.14687e-014 -2.18663e-015
lhumerus -32.4649 -4.5587 84.6987
lradius 36.4122
lwrist 6.30732
lhand -21.8348 2.43405
lfingers 7.12502
lthumb 4.5683 32.3648
rfemur -25.0687 5.2924 25.9752
rtibia 32.6631
rfoot -14.1887 -3.57923
rtoes -5.0242
lfemur -42.2305 9.08467 -18.0174
ltibia 63.4494
lfoot -1.24623 -6.52981
ltoes -17.9394
